<svg width="25" height="24" viewBox="0 0 25 24" fill="none" xmlns="http://www.w3.org/2000/svg">
<path d="M11.1192 12.1701L14.9919 8.29744C15.064 8.22272 15.1504 8.16311 15.2458 8.12211C15.3413 8.08111 15.4439 8.05953 15.5478 8.05862C15.6517 8.05772 15.7547 8.07752 15.8509 8.11685C15.947 8.15619 16.0344 8.21428 16.1078 8.28774C16.1813 8.3612 16.2394 8.44855 16.2787 8.5447C16.3181 8.64085 16.3378 8.74387 16.3369 8.84776C16.336 8.95164 16.3145 9.0543 16.2735 9.14975C16.2325 9.2452 16.1729 9.33153 16.0981 9.4037L11.6723 13.8295C11.5256 13.9762 11.3266 14.0586 11.1192 14.0586C10.9117 14.0586 10.7128 13.9762 10.566 13.8295L6.14021 9.4037C6.06549 9.33153 6.00589 9.2452 5.96488 9.14975C5.92388 9.0543 5.9023 8.95164 5.9014 8.84776C5.90049 8.74387 5.92029 8.64085 5.95963 8.5447C5.99896 8.44855 6.05706 8.3612 6.13052 8.28774C6.20397 8.21428 6.29133 8.15619 6.38748 8.11685C6.48363 8.07752 6.58665 8.05772 6.69053 8.05862C6.79441 8.05953 6.89707 8.08111 6.99252 8.12211C7.08797 8.16311 7.1743 8.22272 7.24647 8.29744L11.1192 12.1701Z" fill="#21272A"/>
</svg>
