<svg width="21" height="20" viewBox="0 0 21 20" fill="none" xmlns="http://www.w3.org/2000/svg">
<path d="M15.5 6.66699C15.5 5.34091 14.9732 4.06914 14.0355 3.13146C13.0979 2.19378 11.8261 1.66699 10.5 1.66699C9.17392 1.66699 7.90215 2.19378 6.96447 3.13146C6.02678 4.06914 5.5 5.34091 5.5 6.66699C5.5 12.5003 3 14.167 3 14.167H18C18 14.167 15.5 12.5003 15.5 6.66699Z" stroke="#21272A" stroke-width="1.3" stroke-linecap="round" stroke-linejoin="round"/>
<path d="M11.9419 17.5C11.7954 17.7526 11.5851 17.9622 11.3321 18.1079C11.0791 18.2537 10.7922 18.3304 10.5003 18.3304C10.2083 18.3304 9.92142 18.2537 9.66841 18.1079C9.41539 17.9622 9.2051 17.7526 9.05859 17.5" stroke="#21272A" stroke-width="1.3" stroke-linecap="round" stroke-linejoin="round"/>
</svg>
