<svg width="20" height="20" viewBox="0 0 20 20" fill="none" xmlns="http://www.w3.org/2000/svg">
<path d="M17.5 11.0465C15.1839 11.984 12.6523 12.5003 10 12.5003C7.34775 12.5003 4.81608 11.984 2.5 11.0465M13.3333 5.00033V3.33366C13.3333 2.41318 12.5871 1.66699 11.6667 1.66699H8.33333C7.41286 1.66699 6.66667 2.41318 6.66667 3.33366V5.00033M10 10.0003H10.0083M4.16667 16.667H15.8333C16.7538 16.667 17.5 15.9208 17.5 15.0003V6.66699C17.5 5.74652 16.7538 5.00033 15.8333 5.00033H4.16667C3.24619 5.00033 2.5 5.74652 2.5 6.66699V15.0003C2.5 15.9208 3.24619 16.667 4.16667 16.667Z" stroke="#21272A" stroke-width="1.3" stroke-linecap="round" stroke-linejoin="round"/>
</svg>
