<svg width="18" height="18" viewBox="0 0 18 18" fill="none" xmlns="http://www.w3.org/2000/svg">
<path d="M16 16V6.5L9 2.5L2 6.5V16H6V13.375C6 12.491 6.35119 11.6431 6.97631 11.018C7.60143 10.3929 8.11627 10.0417 9.00033 10.0417C9.88438 10.0417 10.3986 10.3929 11.0237 11.018C11.6488 11.6431 12 12.491 12 13.375V16H16ZM10.667 17.3334V13.375C10.667 12.933 10.4914 12.5091 10.1788 12.1965C9.86627 11.884 9.44235 11.7084 9.00033 11.7084C8.5583 11.7084 8.13438 11.884 7.82181 12.1965C7.50925 12.5091 7.33366 12.933 7.33366 13.375V17.3334H2.33366C1.89163 17.3334 1.46771 17.1578 1.15515 16.8452C0.842587 16.5327 0.666992 16.1087 0.666992 15.6667V6.61004C0.666989 6.32223 0.741518 6.03933 0.88332 5.78887C1.02512 5.53842 1.22936 5.32895 1.47616 5.18088L8.14283 1.18088C8.40185 1.02546 8.69825 0.943359 9.00033 0.943359C9.3024 0.943359 9.5988 1.02546 9.85783 1.18088L16.5245 5.18088C16.7713 5.32895 16.9755 5.53842 17.1173 5.78887C17.2591 6.03933 17.3337 6.32223 17.3337 6.61004V15.6667C17.3337 16.1087 17.1581 16.5327 16.8455 16.8452C16.5329 17.1578 16.109 17.3334 15.667 17.3334H10.667Z" fill="#21272A"/>
</svg>
