<svg width="48" height="48" viewBox="0 0 48 48" fill="none" xmlns="http://www.w3.org/2000/svg">
<rect width="48" height="48" fill="#DDE1E6"/>
<path d="M18.2581 20.8841L23.9701 30.9771L29.5881 21.1471C28.2581 21.0421 26.8761 20.6941 25.3461 20.1551C24.9511 20.0151 24.7481 19.9841 24.5661 20.0071C24.4121 20.0271 22.8431 20.5761 21.9231 20.8091C20.7621 21.1031 19.5391 21.1261 18.2581 20.8841ZM16.8481 18.3941C18.5501 19.0641 20.0721 19.2141 21.4321 18.8701C22.1701 18.6831 23.9101 18.0741 24.3151 18.0231C24.8441 17.9561 25.3451 18.0331 26.0111 18.2681C27.7851 18.8941 29.3071 19.2241 30.7141 19.1771L31.6011 17.6251C29.2001 16.5482 26.5975 15.9943 23.9661 16.0001C21.359 15.9946 18.78 16.5384 16.3971 17.5961L16.8481 18.3931V18.3941ZM14.5421 16.2681C17.4571 14.7699 20.6887 13.9922 23.9661 14.0001C27.3281 14.0001 30.5721 14.8001 33.4621 16.3061C33.5814 16.3683 33.687 16.4539 33.7725 16.5579C33.8579 16.6619 33.9215 16.782 33.9594 16.9112C33.9973 17.0403 34.0088 17.1758 33.9931 17.3094C33.9774 17.4431 33.9349 17.5722 33.8681 17.6891L24.8341 33.4961C24.7464 33.6493 24.6197 33.7766 24.4668 33.8649C24.314 33.9533 24.1405 33.9997 23.9639 33.9993C23.7874 33.9988 23.6141 33.9517 23.4617 33.8626C23.3092 33.7735 23.1831 33.6457 23.0961 33.4921L14.1301 17.6501C14.064 17.533 14.0222 17.4038 14.0072 17.2702C13.9922 17.1366 14.0043 17.0013 14.0428 16.8725C14.0812 16.7437 14.1453 16.6239 14.2311 16.5204C14.3169 16.4169 14.4226 16.3318 14.5421 16.2701V16.2681ZM22.0001 24.0001C21.7349 24.0001 21.4805 23.8947 21.293 23.7072C21.1055 23.5196 21.0001 23.2653 21.0001 23.0001C21.0001 22.7348 21.1055 22.4805 21.293 22.293C21.4805 22.1054 21.7349 22.0001 22.0001 22.0001C22.2653 22.0001 22.5197 22.1054 22.7072 22.293C22.8947 22.4805 23.0001 22.7348 23.0001 23.0001C23.0001 23.2653 22.8947 23.5196 22.7072 23.7072C22.5197 23.8947 22.2653 24.0001 22.0001 24.0001ZM25.0001 27.0001C24.7349 27.0001 24.4805 26.8947 24.293 26.7072C24.1055 26.5196 24.0001 26.2653 24.0001 26.0001C24.0001 25.7348 24.1055 25.4805 24.293 25.293C24.4805 25.1054 24.7349 25.0001 25.0001 25.0001C25.2653 25.0001 25.5197 25.1054 25.7072 25.293C25.8947 25.4805 26.0001 25.7348 26.0001 26.0001C26.0001 26.2653 25.8947 26.5196 25.7072 26.7072C25.5197 26.8947 25.2653 27.0001 25.0001 27.0001Z" fill="#697077"/>
</svg>
