<svg width="16" height="16" viewBox="0 0 16 16" fill="none" xmlns="http://www.w3.org/2000/svg">
<path fill-rule="evenodd" clip-rule="evenodd" d="M6.125 2.28562C4.05393 2.28562 2.375 3.9912 2.375 6.09514C2.375 8.19909 4.05393 9.90467 6.125 9.90467C8.19607 9.90467 9.875 8.19909 9.875 6.09514C9.875 3.9912 8.19607 2.28562 6.125 2.28562ZM0.5 6.09514C0.5 2.93923 3.0184 0.380859 6.125 0.380859C9.2316 0.380859 11.75 2.93923 11.75 6.09514C11.75 7.32927 11.3649 8.47202 10.7101 9.40613L15.2254 13.9931C15.5915 14.3651 15.5915 14.9681 15.2254 15.34C14.8593 15.7119 14.2657 15.7119 13.8996 15.34L9.38425 10.753C8.46473 11.4182 7.33984 11.8094 6.125 11.8094C3.0184 11.8094 0.5 9.25106 0.5 6.09514Z" fill="white"/>
</svg>
