<svg width="15" height="16" viewBox="0 0 15 16" fill="none" xmlns="http://www.w3.org/2000/svg">
<path fill-rule="evenodd" clip-rule="evenodd" d="M5.625 2.28562C3.55393 2.28562 1.875 3.9912 1.875 6.09514C1.875 8.19909 3.55393 9.90467 5.625 9.90467C7.69607 9.90467 9.375 8.19909 9.375 6.09514C9.375 3.9912 7.69607 2.28562 5.625 2.28562ZM0 6.09514C0 2.93923 2.5184 0.380859 5.625 0.380859C8.7316 0.380859 11.25 2.93923 11.25 6.09514C11.25 7.32927 10.8649 8.47202 10.2101 9.40613L14.7254 13.9931C15.0915 14.3651 15.0915 14.9681 14.7254 15.34C14.3593 15.7119 13.7657 15.7119 13.3996 15.34L8.88425 10.753C7.96473 11.4182 6.83984 11.8094 5.625 11.8094C2.5184 11.8094 0 9.25106 0 6.09514Z" fill="#21272A"/>
</svg>
